<?xml version="1.0" encoding="UTF-8"?>
<svg width="256px" height="256px" viewBox="0 0 256 256" version="1.1" xmlns="http://www.w3.org/2000/svg" xmlns:xlink="http://www.w3.org/1999/xlink">
    <title>favicon</title>
    <g id="favicon" stroke="none" stroke-width="1" fill="none" fill-rule="evenodd">
        <rect fill="#B02B2C" x="0" y="0" width="256" height="256"></rect>
        <path d="M192.670649,136.440317 C211.328137,146.195341 223,160.118808 223,175.575342 C223,205.080966 180.467051,229 128,229 C75.5329488,229 33,205.080966 33,175.575342 C33,160.118808 44.6718625,146.195341 63.3293507,136.440317 C64.273558,137.978665 65.2684909,139.479723 66.3132091,140.942139 C64.0854684,142.249382 61.9953723,143.629989 60.0564554,145.074746 L67.4886769,151.093735 C68.8519625,149.994329 70.3388788,148.935119 71.9400894,147.920635 C73.4944996,149.633526 75.1240725,151.274264 76.8242289,152.838166 C70.565673,156.814355 66.9285714,161.56654 66.9285714,166.671233 C66.9285714,180.66749 94.2711814,192.013699 128,192.013699 C161.728819,192.013699 189.071429,180.66749 189.071429,166.671233 C189.071429,161.56654 185.434327,156.814355 179.176817,152.836569 C180.875928,151.274264 182.5055,149.633526 184.059101,147.921392 C185.923688,149.101474 187.632613,150.34291 189.171963,151.637799 L196.633138,145.596187 C194.502902,143.961451 192.181233,142.406098 189.685959,140.939853 C190.71098,139.50846 191.687322,138.037642 192.613453,136.532069 Z M101.980666,200.569778 L95.2227008,214.429007 C105.296115,216.754845 116.372639,218.041096 128,218.041096 C139.618863,218.041096 150.687693,216.756725 160.75521,214.434105 L153.996343,200.574203 C145.951284,202.121947 137.180352,202.972603 128,202.972603 C118.810902,202.972603 110.032005,202.120326 101.980666,200.569778 Z M192.481906,182.663577 C186.640568,189.018129 176.927525,194.350365 164.797549,197.95432 L171.392721,211.476098 C188.604942,205.814717 201.798167,196.887116 208.086814,186.267056 Z M63.5134824,182.658558 L47.9096306,186.261051 C54.1942946,196.879417 67.3810493,205.806363 84.5862109,211.469166 L91.1804974,197.947795 C79.0575628,194.342981 69.3507956,189.011487 63.5134824,182.658558 Z M128,29 C164.726936,29 194.5,59.0521195 194.5,96.1232877 C194.5,129.391398 170.522314,157.00673 139.059039,162.322611 L128,179.684932 L116.940961,162.322611 C85.4776859,157.00673 61.5,129.391398 61.5,96.1232877 C61.5,59.0521195 91.2730641,29 128,29 Z M203.703105,152.09497 L195.515287,158.725912 C197.502484,161.889375 198.571429,165.247123 198.571429,168.726027 C198.571429,170.560985 198.274041,172.362237 197.701379,174.119051 L211.612835,177.330281 C211.963008,175.630122 212.142857,173.901858 212.142857,172.150685 C212.142857,164.959162 209.109728,158.154005 203.703105,152.09497 Z M43.8571429,172.150685 C43.8571429,173.899803 44.0365697,175.626065 44.3859327,177.324296 L58.2969911,174.114049 C57.7253947,172.358818 57.4285714,170.559244 57.4285714,168.726027 C57.4285714,164.987215 58.663204,161.388339 60.9454147,158.020171 L52.8617745,151.473941 C47.1019833,157.687474 43.8571429,164.712412 43.8571429,172.150685 Z M149.668539,72.8356164 L106.331461,72.8356164 L88.6428571,89.6954689 L128,127.630137 L167.357143,89.6954689 L149.668539,72.8356164 Z" id="logo" fill="#FFFFFF"></path>
    </g>
</svg>