<?xml version="1.0" encoding="UTF-8"?>
<svg width="190px" height="200px" viewBox="0 0 190 200" version="1.1" xmlns="http://www.w3.org/2000/svg" xmlns:xlink="http://www.w3.org/1999/xlink">
    <title>favicon-mask</title>
    <g id="favicon-mask" stroke="none" stroke-width="1" fill="none" fill-rule="evenodd">
        <path d="M159.670649,107.440317 C178.328137,117.195341 190,131.118808 190,146.575342 C190,176.080966 147.467051,200 95,200 C42.5329488,200 0,176.080966 0,146.575342 C0,131.118808 11.6718625,117.195341 30.3293507,107.440317 C31.273558,108.978665 32.2684909,110.479723 33.3132091,111.942139 C31.0854684,113.249382 28.9953723,114.629989 27.0564554,116.074746 L34.4886769,122.093735 C35.8519625,120.994329 37.3388788,119.935119 38.9400894,118.920635 C40.4944996,120.633526 42.1240725,122.274264 43.8242289,123.838166 C37.565673,127.814355 33.9285714,132.56654 33.9285714,137.671233 C33.9285714,151.66749 61.2711814,163.013699 95,163.013699 C128.728819,163.013699 156.071429,151.66749 156.071429,137.671233 C156.071429,132.56654 152.434327,127.814355 146.176817,123.836569 C147.875928,122.274264 149.5055,120.633526 151.059101,118.921392 C152.923688,120.101474 154.632613,121.34291 156.171963,122.637799 L163.633138,116.596187 C161.502902,114.961451 159.181233,113.406098 156.685959,111.939853 C157.71098,110.50846 158.687322,109.037642 159.613453,107.532069 Z M68.980666,171.569778 L62.2227008,185.429007 C72.2961152,187.754845 83.3726385,189.041096 95,189.041096 C106.618863,189.041096 117.687693,187.756725 127.75521,185.434105 L120.996343,171.574203 C112.951284,173.121947 104.180352,173.972603 95,173.972603 C85.8109024,173.972603 77.0320048,173.120326 68.980666,171.569778 Z M159.481906,153.663577 C153.640568,160.018129 143.927525,165.350365 131.797549,168.95432 L138.392721,182.476098 C155.604942,176.814717 168.798167,167.887116 175.086814,157.267056 Z M30.5134824,153.658558 L14.9096306,157.261051 C21.1942946,167.879417 34.3810493,176.806363 51.5862109,182.469166 L58.1804974,168.947795 C46.0575628,165.342981 36.3507956,160.011487 30.5134824,153.658558 Z M95,0 C131.726936,0 161.5,30.0521195 161.5,67.1232877 C161.5,100.391398 137.522314,128.00673 106.059039,133.322611 L95,150.684932 L83.9409611,133.322611 C52.4776859,128.00673 28.5,100.391398 28.5,67.1232877 C28.5,30.0521195 58.2730641,0 95,0 Z M170.703105,123.09497 L162.515287,129.725912 C164.502484,132.889375 165.571429,136.247123 165.571429,139.726027 C165.571429,141.560985 165.274041,143.362237 164.701379,145.119051 L178.612835,148.330281 C178.963008,146.630122 179.142857,144.901858 179.142857,143.150685 C179.142857,135.959162 176.109728,129.154005 170.703105,123.09497 Z M10.8571429,143.150685 C10.8571429,144.899803 11.0365697,146.626065 11.3859327,148.324296 L25.2969911,145.114049 C24.7253947,143.358818 24.4285714,141.559244 24.4285714,139.726027 C24.4285714,135.987215 25.663204,132.388339 27.9454147,129.020171 L19.8617745,122.473941 C14.1019833,128.687474 10.8571429,135.712412 10.8571429,143.150685 Z M116.668539,43.8356164 L73.3314607,43.8356164 L55.6428571,60.6954689 L95,98.630137 L134.357143,60.6954689 L116.668539,43.8356164 Z" id="logo" fill="#000000"></path>
    </g>
</svg>